<svg xmlns="http://www.w3.org/2000/svg" width="128" height="128" viewBox="0 0 128 128">
<g transform="translate(4 9.5) scale(0.286)" fill="none">
<path d="M180.029 259.236L282.433 197.793H419.825L318.274 377L180.029 259.236Z" fill="#3A6CC0"/>
<path d="M109.199 22H320.834L419.824 197.793L318.274 377H111.76L8.50238 199.5L109.199 22Z" stroke="#112543" stroke-width="17" stroke-linecap="round" stroke-linejoin="round"/>
<path d="M109.199 22L180.029 142.325" stroke="#112543" stroke-width="17" stroke-linecap="round" stroke-linejoin="round"/>
<path d="M320.834 22L282.433 197.793" stroke="#112543" stroke-width="17" stroke-linecap="round" stroke-linejoin="round"/>
<path d="M180.029 142.325L8.50232 199.5" stroke="#112543" stroke-width="17" stroke-linecap="round" stroke-linejoin="round"/>
<path d="M180.029 142.325V259.236" stroke="#112543" stroke-width="17" stroke-linecap="round" stroke-linejoin="round"/>
<path d="M180.029 142.325L282.433 197.793" stroke="#112543" stroke-width="17" stroke-linecap="round" stroke-linejoin="round"/>
<path d="M282.433 197.793H419.824" stroke="#112543" stroke-width="17" stroke-linecap="round" stroke-linejoin="round"/>
<path d="M180.029 259.236L282.433 197.793" stroke="#112543" stroke-width="17" stroke-linecap="round" stroke-linejoin="round"/>
<path d="M180.029 259.236L111.76 377" stroke="#112543" stroke-width="17" stroke-linecap="round" stroke-linejoin="round"/>
<path d="M180.029 259.236L318.274 377" stroke="#112543" stroke-width="17" stroke-linecap="round" stroke-linejoin="round"/>
</g>
</svg>
